<svg xmlns="http://www.w3.org/2000/svg" width="17.847" height="18.19" viewBox="0 0 17.847 18.19">
  <g id="noun_notification_1594309" transform="translate(-24 -23.5)">
    <g id="Group_10161" data-name="Group 10161" transform="translate(24 23.5)">
      <path id="Path_33442" data-name="Path 33442" d="M41.847,36.542A2.062,2.062,0,0,1,39.784,38.6H26.063a2.059,2.059,0,1,1,0-4.118s0-4.119,0-4.119a6.864,6.864,0,0,1,13.728,0v4.118A2.062,2.062,0,0,1,41.847,36.542ZM29.834,38.6c.147-5.179,2.744-5.611,3.692-5.611s2.256,1.661,2.486,5.611a3.089,3.089,0,0,1-6.178,0Z" transform="translate(-24 -23.5)" fill="#bec9eb"/>
    </g>
  </g>
</svg>
