<svg xmlns="http://www.w3.org/2000/svg" width="17.852" height="17.852" viewBox="0 0 17.852 17.852">
  <g id="noun_dashboard_3846734" transform="translate(-1.43 -1.43)">
    <path id="Path_33439" data-name="Path 33439" d="M7.665,3.518v5.53a1.338,1.338,0,0,1-1.338,1.338H3.518A1.338,1.338,0,0,1,2.18,9.047V3.518A1.338,1.338,0,0,1,3.518,2.18H6.327A1.338,1.338,0,0,1,7.665,3.518Zm-1.338,9.4H3.518A1.338,1.338,0,0,0,2.18,14.251v2.943a1.338,1.338,0,0,0,1.338,1.338H6.327a1.338,1.338,0,0,0,1.338-1.338V14.251A1.338,1.338,0,0,0,6.327,12.913ZM17.194,9.622H11.531a1.338,1.338,0,0,0-1.338,1.338v6.234a1.338,1.338,0,0,0,1.338,1.338h5.663a1.338,1.338,0,0,0,1.338-1.338V10.96A1.338,1.338,0,0,0,17.194,9.622Zm0-7.442H11.531a1.338,1.338,0,0,0-1.338,1.338V5.756a1.338,1.338,0,0,0,1.338,1.338h5.663a1.338,1.338,0,0,0,1.338-1.338V3.518A1.338,1.338,0,0,0,17.194,2.18Z" transform="translate(0 0)" fill="#fff"/>
    <path id="Path_33439_-_Outline" data-name="Path 33439 - Outline" d="M3.518,1.43H6.327A2.09,2.09,0,0,1,8.415,3.518v5.53a2.09,2.09,0,0,1-2.088,2.088H3.518A2.09,2.09,0,0,1,1.43,9.047V3.518A2.09,2.09,0,0,1,3.518,1.43ZM6.327,9.635a.588.588,0,0,0,.588-.588V3.518a.588.588,0,0,0-.588-.588H3.518a.588.588,0,0,0-.588.588v5.53a.588.588,0,0,0,.588.588Zm5.2-8.205h5.663a2.09,2.09,0,0,1,2.088,2.088V5.756a2.09,2.09,0,0,1-2.088,2.088H11.531A2.09,2.09,0,0,1,9.443,5.756V3.518A2.09,2.09,0,0,1,11.531,1.43Zm5.663,4.914a.588.588,0,0,0,.588-.588V3.518a.588.588,0,0,0-.588-.588H11.531a.588.588,0,0,0-.588.588V5.756a.588.588,0,0,0,.588.588ZM11.531,8.872h5.663a2.09,2.09,0,0,1,2.088,2.088v6.234a2.09,2.09,0,0,1-2.088,2.088H11.531a2.09,2.09,0,0,1-2.088-2.088V10.96A2.09,2.09,0,0,1,11.531,8.872Zm5.663,8.91a.588.588,0,0,0,.588-.588V10.96a.588.588,0,0,0-.588-.588H11.531a.588.588,0,0,0-.588.588v6.234a.588.588,0,0,0,.588.588ZM3.518,12.163H6.327a2.09,2.09,0,0,1,2.088,2.088v2.943a2.09,2.09,0,0,1-2.088,2.088H3.518A2.09,2.09,0,0,1,1.43,17.194V14.251A2.09,2.09,0,0,1,3.518,12.163Zm2.809,5.619a.588.588,0,0,0,.588-.588V14.251a.588.588,0,0,0-.588-.588H3.518a.588.588,0,0,0-.588.588v2.943a.588.588,0,0,0,.588.588Z" transform="translate(0 0)" fill="#fff"/>
  </g>
</svg>
