<svg xmlns="http://www.w3.org/2000/svg" width="19.9" height="19.805" viewBox="0 0 19.9 19.805">
  <path id="Union_1" data-name="Union 1" d="M-16736.662-5815.638h-3.645a1.691,1.691,0,0,1-1.693-1.688,1.691,1.691,0,0,1,1.693-1.686s0-3.371,0-3.371a5.634,5.634,0,0,1,5.643-5.619,5.631,5.631,0,0,1,5.639,5.619v3.371a1.689,1.689,0,0,1,1.691,1.686,1.689,1.689,0,0,1-1.691,1.688h-3.525a2.05,2.05,0,0,1-2.055,2.04A2.05,2.05,0,0,1-16736.662-5815.638Z" transform="translate(11592.197 13418.197) rotate(30)" fill="#bec9eb"/>
</svg>
